<svg xmlns:xlink="http://www.w3.org/1999/xlink" width="800" height="280" viewBox="0 0 800 280" fill="currentColor" xmlns="http://www.w3.org/2000/svg" id="ryota-logo"><path d="M67.9454 45.1852C69.7488 51.1814 70.1732 79.1638 68.7941 93.155C68.0515 100.624 65.6115 115.246 65.1872 117.981C64.869 120.717 64.1263 125.135 63.5959 127.765C63.0655 130.395 62.3229 134.392 61.8986 136.707C61.5803 139.021 60.8378 142.598 60.3073 144.596C59.883 146.595 58.9282 151.645 58.1856 155.642C57.5491 159.745 56.5943 164.899 56.0639 167.214C55.6396 169.528 54.6848 174.788 53.9422 178.785C52.2449 188.989 50.5476 195.091 48.7441 196.458C47.5772 197.405 46.4102 196.669 42.9095 192.882C38.2417 187.727 34.8471 179.732 32.7254 169.107C31.2402 161.849 31.8767 135.339 33.7862 123.557C35.5896 112.406 38.0296 86.738 38.0296 79.3742C37.9235 75.5871 37.287 67.8025 36.3323 62.0167C35.4836 56.2309 34.6349 50.5502 34.5288 49.4983C34.3166 47.3943 37.0748 46.5527 53.9422 43.7124C66.6724 41.6085 66.8846 41.6085 67.9454 45.1852ZM112.622 0C120.13 0 127.339 0.852338 134.25 2.55703C141.161 4.26171 147.219 6.92529 152.423 10.5478C157.628 14.1702 161.787 18.8794 164.901 24.6753C168.015 30.4713 169.572 37.4605 169.572 45.643C169.572 49.9899 168.847 54.4434 167.397 59.0035C165.946 63.5635 163.557 68.1236 160.23 72.6836C156.903 77.2436 152.487 81.7611 146.984 86.2359C141.481 90.7107 134.677 94.9937 126.571 99.0849C129.58 101.878 136.131 103.779 146.984 115.338C155.024 123.902 158.926 131.613 162.411 141.013C164.126 145.637 164.983 150.255 167.397 157.875C169.483 164.462 171.94 168.567 177.569 172.796C180.131 174.722 183.958 177.722 188.173 179.133C194.184 181.145 200.84 181.167 204.504 180.833C210.737 180.265 214.362 177.22 214.626 177.174C214.859 177.133 209.963 184.683 196.988 189.082C193.3 189.958 189.804 190.758 186.983 190.854C183.739 190.854 181.055 190.727 176.445 190.388C170.264 189.933 160.2 187.673 154.393 185.061C149.406 182.287 144.586 179.181 140.199 170.265C138.101 166.002 136.618 158.008 134.25 153.076C131.883 148.144 123.948 137.178 118.829 132.491C113.71 127.803 108.692 124.268 100.339 120.45C99.5657 120.097 96.8351 118.61 90.303 116.896C84.7869 115.449 84.5896 115.397 74.8414 114.09C75.4439 113.865 87.7878 113.685 92.407 112.714C98.3027 111.474 103.09 108.015 108.014 105.094C113.475 101.855 118.231 98.1474 122.284 93.9709C126.337 89.7944 129.536 85.1278 131.883 79.9711C134.229 74.8145 135.402 69.1251 135.402 62.903C135.402 55.4023 133.866 48.8393 130.795 43.2138C127.723 37.5884 123.735 32.9005 118.829 29.1502C113.923 25.3998 108.356 22.5871 102.127 20.712C95.8991 18.8368 89.6281 17.8992 83.3145 17.8992C78.1953 17.8992 73.2894 18.1549 68.5968 18.6663C58.6667 19.4686 48.0018 20.4915 36.602 21.7348C34.3837 21.9905 32.2081 22.1396 30.0751 22.1822C27.9421 22.2249 25.7665 22.2462 23.5482 22.2462C20.306 22.2462 16.6586 22.1609 12.606 21.9905C8.55328 21.82 4.35129 21.4791 0 20.9677L32.3787 0.511405C39.0337 1.44898 45.3047 2.08825 51.1917 2.42919C57.0787 2.77013 61.9419 2.9406 65.7813 2.9406C70.0473 2.9406 74.1639 2.79143 78.1313 2.49311C82.0986 2.19479 86.002 1.85385 89.8414 1.4703C93.6808 1.08674 97.4775 0.745808 101.232 0.447487C104.986 0.149167 108.782 0 112.622 0ZM201.733 280C202.423 280 203.114 279.826 203.804 279.479C204.494 279.132 205.07 278.65 205.53 278.033C205.99 277.416 206.317 276.703 206.508 275.893C206.7 275.083 206.681 274.215 206.451 273.29C206.067 271.824 205.875 269.973 205.875 267.737C205.875 265.5 206.297 262.801 207.141 259.638C207.985 256.476 209.424 252.735 211.457 248.416C213.49 244.097 216.386 239.122 220.145 233.492C223.904 227.862 229.006 221.364 235.451 213.998C241.895 206.632 249.068 198.746 256.97 190.339C264.872 181.932 273.158 173.178 281.827 164.077C290.496 154.976 298.936 145.914 307.144 136.89C313.589 129.871 318.844 123.238 322.91 116.991C326.976 110.744 330.179 104.959 332.519 99.6374C334.859 94.3156 336.47 89.4566 337.353 85.0603C338.235 80.6641 338.676 76.7691 338.676 73.3755C338.676 71.9101 338.58 70.2133 338.388 68.2851C338.196 66.3569 337.794 64.5444 337.18 62.8476C336.566 61.1508 335.646 59.7239 334.418 58.567C333.191 57.4101 331.541 56.8317 329.47 56.8317C326.554 56.8317 323.658 57.5837 320.781 59.0877C317.904 60.5917 315.142 62.4813 312.496 64.7565C309.849 67.0318 307.355 69.4806 305.016 72.1029C302.676 74.7253 300.623 77.1162 298.859 79.2758C301.007 78.8901 302.925 79.0058 304.613 79.6228C306.301 80.2399 307.681 81.3004 308.756 82.8044C309.83 84.3083 310.654 86.198 311.23 88.4732C311.805 90.7485 312.093 93.313 312.093 96.1667C312.093 99.3289 311.345 102.935 309.849 106.984C308.353 111.033 306.281 115.41 303.635 120.115C300.988 124.82 297.9 129.775 294.371 134.981C290.842 140.187 287.006 145.49 282.863 150.889C280.485 140.168 277.665 130.238 274.405 121.098C271.144 111.959 267.845 103.802 264.508 96.6294C261.171 89.4566 258.063 83.3442 255.187 78.2924C252.31 73.2405 250.066 69.4035 248.454 66.7811C246.767 64.1588 244.945 62.2692 242.988 61.1123C241.032 59.9553 238.941 59.3769 236.716 59.3769C233.494 59.3769 230.215 60.1675 226.877 61.7486C223.54 63.3297 220.299 65.2771 217.153 67.591C214.008 69.9048 211.016 72.4114 208.177 75.1109C205.338 77.8104 202.807 80.2399 200.582 82.3994C202.5 81.3197 204.379 80.452 206.221 79.7964C208.062 79.1408 209.865 78.813 211.629 78.813C215.926 78.813 219.953 80.5484 223.713 84.0191C227.472 87.4898 230.963 92.0597 234.185 97.7285C237.407 103.397 240.341 109.857 242.988 117.107C245.635 124.357 247.975 131.742 250.008 139.262C252.041 146.782 253.806 154.147 255.302 161.359C256.798 168.57 257.968 174.952 258.812 180.506C252.06 188.45 245.501 196.027 239.133 203.239C232.765 210.45 227.088 216.833 222.101 222.386C218.035 226.936 214.353 231.737 211.054 236.789C207.755 241.841 204.955 246.739 202.653 251.482C200.352 256.225 198.664 260.622 197.59 264.671C196.516 268.72 196.247 271.94 196.784 274.331C197.321 276.336 198.05 277.783 198.971 278.67C199.891 279.556 200.812 280 201.733 280ZM420.983 187.129C426.607 187.129 432.075 186.4 437.387 184.944C442.699 183.488 447.875 181.552 452.913 179.138C457.952 176.723 462.854 173.983 467.619 170.917C472.384 167.851 477.032 164.708 481.563 161.488C483.125 160.339 485.195 158.461 487.773 155.854C490.351 153.248 492.89 149.99 495.39 146.081C497.89 142.172 500.038 137.611 501.835 132.399C503.631 127.186 504.53 121.399 504.53 115.037C504.53 107.525 503.182 100.549 500.487 94.1105C497.792 87.6717 494.003 82.0952 489.121 77.381C484.239 72.6669 478.419 68.9875 471.661 66.343C464.904 63.6985 457.464 62.3762 449.339 62.3762C442.777 62.3762 435.981 63.1811 428.951 64.7908C421.92 66.4005 415.085 68.7384 408.445 71.8045C401.805 74.8707 395.516 78.6075 389.579 83.015C383.642 87.4226 378.467 92.3858 374.053 97.9048C369.64 103.424 366.124 109.46 363.507 116.014C360.89 122.568 359.582 129.562 359.582 136.998C359.582 145.43 361.203 152.788 364.445 159.074C367.687 165.359 372.1 170.572 377.686 174.711C383.271 178.85 389.794 181.955 397.254 184.024C404.715 186.094 412.624 187.129 420.983 187.129ZM439.001 173.267C432.1 173.267 425.601 171.974 419.505 169.386C413.408 166.799 408.079 163.222 403.516 158.656C398.953 154.09 395.368 148.744 392.761 142.617C390.154 136.491 388.85 129.889 388.85 122.812C388.85 119.692 389.138 116.362 389.713 112.824C390.288 109.285 391.17 105.784 392.358 102.321C393.547 98.8588 395.042 95.5484 396.844 92.3902C398.647 89.232 400.794 86.4543 403.286 84.0571C405.778 81.6599 408.635 79.7573 411.855 78.3494C415.076 76.9416 418.642 76.2376 422.553 76.2376C429.454 76.2376 435.934 77.6835 441.992 80.5754C448.05 83.4673 453.341 87.3485 457.866 92.219C462.39 97.0895 465.956 102.721 468.563 109.114C471.17 115.506 472.474 122.165 472.474 129.09C472.474 137.005 471.534 143.759 469.656 149.352C467.777 154.946 465.285 159.512 462.179 163.051C459.073 166.589 455.508 169.177 451.482 170.813C447.456 172.449 443.296 173.267 439.001 173.267ZM571.474 188.425C575.908 188.733 580.673 188.251 585.768 186.98C590.863 185.708 596.192 183.762 601.753 181.141C607.315 178.521 613.052 175.284 618.964 171.43C624.876 167.576 630.866 163.222 636.934 158.366C631.1 162.066 625.363 164.725 619.723 166.343C614.083 167.962 608.813 168.771 603.912 168.771C599.089 168.771 594.694 168.097 590.727 166.748C586.76 165.399 583.317 163.607 580.4 161.372C577.483 159.137 575.208 156.516 573.574 153.511C571.941 150.505 571.085 147.306 571.007 143.915C571.007 133.587 571.046 123.105 571.124 112.469C571.202 101.833 571.318 91.0044 571.474 79.9829C577.075 79.6747 582.734 79.0581 588.451 78.1332C594.169 77.2083 599.75 75.8403 605.196 74.0291C610.641 72.2178 615.872 69.8864 620.89 67.0347C625.907 64.183 630.516 60.6762 634.717 56.5142C633.239 57.2079 631.43 57.8245 629.291 58.364C627.152 58.9035 624.838 59.3467 622.348 59.6935C619.859 60.0403 617.273 60.3293 614.589 60.5606C611.905 60.7918 609.28 60.9459 606.713 61.023C600.723 61.3313 594.383 61.4084 587.693 61.2542L582.034 61.2526C580.737 61.2472 579.279 61.2285 577.658 61.1964C575.714 61.1579 573.73 61.1001 571.707 61.023L572.174 22.1782C570.541 23.4885 568.362 25.0684 565.64 26.9182C563.306 28.4597 560.272 30.348 556.538 32.5831C552.805 34.8182 548.215 37.2845 542.77 39.9821C542.77 47.6894 542.186 53.8167 541.019 58.364C539.853 62.9113 538.569 66.4181 537.169 68.8844C535.535 71.7361 533.668 73.7015 531.568 74.7805C529.468 76.2449 527.29 77.7093 525.034 79.1737C523.089 80.4839 520.93 81.9098 518.558 83.4512C516.185 84.9927 513.832 86.4956 511.498 87.96C514.376 86.4956 517.294 85.2817 520.25 84.3183C523.206 83.3549 526.064 82.5842 528.826 82.0061C531.587 81.4281 534.154 81.0234 536.527 80.7922C538.9 80.561 540.903 80.3683 542.536 80.2142C542.381 90.3878 542.225 99.2897 542.07 106.92C541.914 114.55 541.758 120.947 541.603 126.111C541.369 132.123 541.214 137.325 541.136 141.718C540.903 149.888 541.525 156.863 543.003 162.644C544.481 168.424 546.581 173.164 549.304 176.864C552.027 180.563 555.274 183.338 559.047 185.188C562.82 187.037 566.962 188.116 571.474 188.425ZM751.138 186.969C753.692 187.161 755.781 187.18 757.406 187.026C760.346 186.872 763.596 186.219 767.155 185.066C770.714 183.913 774.389 182.375 778.181 180.454C781.972 178.532 785.744 176.245 789.497 173.593C793.249 170.94 796.75 168 800 164.771C796.518 166.001 793.152 166.982 789.903 167.712C786.653 168.442 783.597 168.807 780.734 168.807C775.937 168.807 772.397 167.808 770.114 165.809C767.832 163.811 766.304 161.197 765.53 157.968C764.756 154.739 764.447 151.088 764.602 147.014C764.756 142.939 764.834 138.788 764.834 134.56C764.834 130.409 764.872 126.143 764.95 121.761C765.027 117.379 765.143 112.517 765.298 107.174C765.453 101.831 765.646 95.7777 765.878 89.0128C766.11 82.248 766.381 74.4453 766.691 65.6049C759.185 64.2981 752.493 63.4332 746.612 63.0104C740.732 62.5876 735.625 62.3762 731.292 62.3762C727.114 62.3762 722.549 62.8375 717.597 63.76C712.645 64.6824 707.558 65.9893 702.335 67.6805C697.112 69.3717 691.87 71.3704 686.609 73.6766C681.347 75.9828 676.376 78.5581 671.695 81.4024C667.014 84.2467 662.7 87.2832 658.754 90.5118C654.808 93.7405 651.558 97.0845 649.005 100.544C647.612 102.389 646.278 104.733 645.001 107.578C643.724 110.422 642.602 113.612 641.635 117.148C640.668 120.685 639.875 124.432 639.256 128.391C638.637 132.35 638.328 136.367 638.328 140.441C638.328 145.899 639.14 151.395 640.765 156.93C642.39 162.465 644.827 167.462 648.077 171.921C651.326 176.379 655.35 180.012 660.147 182.817C664.944 185.623 670.515 187.026 676.86 187.026C681.812 187.026 686.841 186.161 691.948 184.432C697.054 182.702 702.103 180.357 707.093 177.398C712.084 174.438 716.939 171.056 721.659 167.251C726.379 163.445 730.867 159.467 735.122 155.316V169.038C735.122 173.573 735.973 177.071 737.675 179.531C739.378 181.991 741.409 183.798 743.769 184.951C746.129 186.104 748.585 186.776 751.138 186.969ZM697.917 164.95C692.61 164.95 687.899 163.735 683.785 161.304C679.67 158.873 676.21 155.713 673.403 151.824C670.596 147.934 668.461 143.54 667 138.641C665.539 133.742 664.808 128.861 664.808 124C664.808 118.914 665.404 113.977 666.596 109.19C667.789 104.403 669.23 100.102 670.922 96.2878C672.614 92.4732 674.383 89.2757 676.229 86.6952C678.075 84.1147 679.69 82.4879 681.074 81.8148C681.843 81.366 682.958 80.9733 684.419 80.6367C685.881 80.3001 687.573 80.0196 689.495 79.7952C691.418 79.5709 693.552 79.3839 695.898 79.2343C698.243 79.0847 700.724 79.0099 703.338 79.0099C708.107 79.0099 713.105 79.253 718.335 79.7392C723.565 80.2253 728.487 81.0668 733.101 82.2635C733.024 88.322 732.966 93.8756 732.928 98.9243C732.89 103.973 732.87 108.629 732.87 112.893V134.658C731.717 138.921 730.198 142.886 728.314 146.551C726.43 150.216 724.065 153.413 721.219 156.143C718.374 158.873 715.028 161.024 711.183 162.594C707.337 164.165 702.915 164.95 697.917 164.95Z" fill="oklch(0.2642 0.0372 30.44)"></path></svg>